<svg width="42" height="42" viewBox="0 0 42 42" fill="none" xmlns="http://www.w3.org/2000/svg">
<g clip-path="url(#clip0_2979_971)">
<path d="M2.37868 39.6213C1.81607 39.0588 1.5 38.2956 1.5 37.5V16.5H40.5V37.5C40.5 38.2956 40.1838 39.0588 39.6213 39.6213C39.0588 40.1838 38.2956 40.5 37.5 40.5H4.5C3.70434 40.5 2.94129 40.1838 2.37868 39.6213Z" fill="#FBD7E4"/>
<path d="M2.37868 6.87867C2.94129 6.31608 3.70434 6 4.5 6H37.5C38.2956 6 39.0588 6.31608 39.6213 6.87867C40.1838 7.44129 40.5 8.20434 40.5 9V16.5H1.5V9C1.5 8.20434 1.81607 7.44129 2.37868 6.87867Z" fill="white"/>
<path d="M4.5 6C3.70434 6 2.94129 6.31608 2.37868 6.87867C1.81607 7.44129 1.5 8.20434 1.5 9V37.5C1.5 38.2956 1.81607 39.0588 2.37868 39.6213C2.94129 40.1838 3.70434 40.5 4.5 40.5H37.5C38.2956 40.5 39.0588 40.1838 39.6213 39.6213C40.1838 39.0588 40.5 38.2956 40.5 37.5V9C40.5 8.20434 40.1838 7.44129 39.6213 6.87867C39.0588 6.31608 38.2956 6 37.5 6H31.5" stroke="#EB3778" stroke-width="2.92857" stroke-linecap="round" stroke-linejoin="round"/>
<path d="M1.5 16.5H40.5" stroke="#EB3778" stroke-width="2.92857" stroke-linecap="round" stroke-linejoin="round"/>
<path d="M10.5 1.5V10.5" stroke="#EB3778" stroke-width="2.92857" stroke-linecap="round" stroke-linejoin="round"/>
<path d="M31.5 1.5V10.5" stroke="#EB3778" stroke-width="2.92857" stroke-linecap="round" stroke-linejoin="round"/>
<path d="M10.5 6H25.5" stroke="#EB3778" stroke-width="2.92857" stroke-linecap="round" stroke-linejoin="round"/>
</g>
<defs>
<clipPath id="clip0_2979_971">
<rect width="42" height="42" fill="white"/>
</clipPath>
</defs>
</svg>
