<svg width="16" height="16" viewBox="0 0 16 16" fill="none" xmlns="http://www.w3.org/2000/svg">
<path fill-rule="evenodd" clip-rule="evenodd" d="M4.57199 0.0249023C5.04537 0.0249023 5.42913 0.408658 5.42913 0.882045V3.16776C5.42913 3.64115 5.04537 4.0249 4.57199 4.0249C4.0986 4.0249 3.71484 3.64115 3.71484 3.16776V0.882045C3.71484 0.408658 4.0986 0.0249023 4.57199 0.0249023ZM2.21695 6.21519C2.53843 5.8937 2.97447 5.71308 3.42913 5.71308H9.14341C9.59808 5.71308 10.0341 5.8937 10.3556 6.21519C10.5508 6.4104 10.6941 6.64784 10.7765 6.90604H10.8577C11.8428 6.90604 12.7875 7.29737 13.4841 7.99393C14.1807 8.69049 14.572 9.63523 14.572 10.6203C14.572 11.6054 14.1807 12.5501 13.4841 13.2467C12.7875 13.9433 11.8428 14.3346 10.8577 14.3346H10.5967C10.4566 14.6395 10.2627 14.9202 10.0209 15.162C9.48505 15.6978 8.75832 15.9988 8.00056 15.9988H4.57199C3.81423 15.9988 3.0875 15.6978 2.55168 15.162C2.01586 14.6261 1.71484 13.8994 1.71484 13.1417V7.42737C1.71484 6.97272 1.89546 6.53667 2.21695 6.21519ZM10.8577 12.6203C11.3881 12.6203 11.8968 12.4097 12.2719 12.0346C12.647 11.6595 12.8577 11.1508 12.8577 10.6203C12.8577 10.0899 12.647 9.58119 12.2719 9.20611C11.8968 8.83104 11.3881 8.62033 10.8577 8.62033V12.6203ZM8.8577 0.882045C8.8577 0.408658 8.47394 0.0249023 8.00056 0.0249023C7.52717 0.0249023 7.14341 0.408658 7.14341 0.882045V3.16776C7.14341 3.64115 7.52717 4.0249 8.00056 4.0249C8.47394 4.0249 8.8577 3.64115 8.8577 3.16776V0.882045Z" fill="black"/>
</svg>
