<svg width="22" height="22" viewBox="0 0 22 22" fill="none" xmlns="http://www.w3.org/2000/svg">
<g clip-path="url(#clip0_1844_2853)">
<path d="M20.459 4.06176L7.79153 16.7283C7.70637 16.8138 7.60515 16.8816 7.4937 16.9279C7.38225 16.9742 7.26276 16.998 7.14208 16.998C7.02139 16.998 6.9019 16.9742 6.79045 16.9279C6.679 16.8816 6.57778 16.8138 6.49262 16.7283L1.59395 11.825C1.50878 11.7395 1.40757 11.6717 1.29612 11.6254C1.18467 11.5791 1.06517 11.5552 0.944492 11.5552C0.823809 11.5552 0.704314 11.5791 0.592864 11.6254C0.481413 11.6717 0.380201 11.7395 0.295034 11.825C0.20953 11.9102 0.141685 12.0114 0.095392 12.1228C0.0490988 12.2343 0.0252686 12.3538 0.0252686 12.4745C0.0252686 12.5951 0.0490988 12.7146 0.095392 12.8261C0.141685 12.9375 0.20953 13.0388 0.295034 13.1239L5.19553 18.0235C5.71249 18.5395 6.41305 18.8293 7.14345 18.8293C7.87385 18.8293 8.57441 18.5395 9.09137 18.0235L21.7579 5.35976C21.8432 5.27461 21.911 5.17345 21.9572 5.06209C22.0034 4.95072 22.0272 4.83133 22.0272 4.71076C22.0272 4.59018 22.0034 4.4708 21.9572 4.35943C21.911 4.24806 21.8432 4.14691 21.7579 4.06176C21.6727 3.97625 21.5715 3.90841 21.46 3.86212C21.3486 3.81582 21.2291 3.79199 21.1084 3.79199C20.9877 3.79199 20.8682 3.81582 20.7568 3.86212C20.6453 3.90841 20.5441 3.97625 20.459 4.06176Z" fill="#222222"/>
</g>
<defs>
<clipPath id="clip0_1844_2853">
<rect width="22" height="22" fill="white"/>
</clipPath>
</defs>
</svg>
