<svg width="20" height="20" viewBox="0 0 20 20" fill="none" xmlns="http://www.w3.org/2000/svg">
<g clip-path="url(#clip0_2977_942)">
<path d="M11.2711 1.49986C11.1512 1.26585 10.9691 1.06947 10.7447 0.932346C10.5204 0.795216 10.2626 0.722656 9.99966 0.722656C9.73673 0.722656 9.4789 0.795216 9.25457 0.932346C9.03024 1.06947 8.8481 1.26585 8.72823 1.49986L0.871082 17.2141C0.761496 17.4316 0.709322 17.6734 0.719514 17.9169C0.729705 18.1601 0.801925 18.3967 0.929315 18.6043C1.0567 18.8119 1.23503 18.9834 1.44737 19.1026C1.6597 19.2219 1.89899 19.2849 2.14252 19.2856H17.8568C18.1003 19.2849 18.3396 19.2219 18.5519 19.1026C18.7643 18.9834 18.9426 18.8119 19.07 18.6043C19.1973 18.3967 19.2696 18.1601 19.2798 17.9169C19.29 17.6734 19.2378 17.4316 19.1282 17.2141L11.2711 1.49986Z" stroke="#E60000" stroke-width="1.42857" stroke-linecap="round" stroke-linejoin="round"/>
<path d="M10 7.14258V11.7854" stroke="#E60000" stroke-width="1.42857" stroke-linecap="round" stroke-linejoin="round"/>
<path d="M10.0002 15.7143C9.80297 15.7143 9.64307 15.5544 9.64307 15.3571C9.64307 15.1599 9.80297 15 10.0002 15" stroke="#E60000" stroke-width="1.42857" stroke-linecap="round" stroke-linejoin="round"/>
<path d="M10 15.7143C10.1972 15.7143 10.3571 15.5544 10.3571 15.3571C10.3571 15.1599 10.1972 15 10 15" stroke="#E60000" stroke-width="1.42857" stroke-linecap="round" stroke-linejoin="round"/>
</g>
<defs>
<clipPath id="clip0_2977_942">
<rect width="20" height="20" fill="white"/>
</clipPath>
</defs>
</svg>
