<svg width="115" height="114" viewBox="0 0 115 114" fill="none" xmlns="http://www.w3.org/2000/svg">
<g clip-path="url(#clip0_1349_5209)">
<path d="M115 57C115.007 63.2329 113.981 69.4245 111.963 75.3277C111.848 75.665 111.729 76.0011 111.608 76.3362C109.471 82.1941 106.381 87.6658 102.461 92.534C101.29 93.9893 100.05 95.3845 98.7401 96.7196C97.4302 98.0569 96.0551 99.329 94.6148 100.536C86.5807 107.29 76.8213 111.713 66.4125 113.319H66.4108C65.0839 113.523 63.7439 113.682 62.3909 113.796C60.7799 113.931 59.1496 113.999 57.5 114C49.8289 114.01 42.2338 112.493 35.1648 109.54C28.0958 106.587 21.6967 102.257 16.3467 96.8073C15.9707 96.4261 15.6004 96.0394 15.2358 95.647C14.3274 94.6706 13.4535 93.6638 12.6143 92.6267C12.1431 92.0432 11.6832 91.4507 11.2346 90.8493C8.47174 87.1491 6.17301 83.1296 4.38907 78.8792C3.6283 77.069 2.96393 75.2204 2.39869 73.3411C2.35786 73.2079 2.31873 73.0747 2.2796 72.9415C2.19454 72.6548 2.11232 72.3664 2.03293 72.0764C0.679664 67.1634 -0.00404794 62.0929 1.80282e-05 57C1.80282e-05 25.5202 25.744 0 57.5 0C89.256 0 115 25.5202 115 57Z" fill="#D9D6DF"/>
<path d="M24.3857 34.0695C24.2967 34.6053 24.3273 35.1539 24.4753 35.6767C24.6233 36.1995 24.8852 36.6838 25.2424 37.0955C25.5997 37.5071 26.0436 37.8361 26.543 38.0593C27.0424 38.2824 27.585 38.3943 28.1328 38.3871L37.3114 64.8622L43.168 60.8722L31.8622 34.3559C31.7889 33.4445 31.381 32.5915 30.7157 31.9584C30.0504 31.3253 29.1739 30.9561 28.2523 30.9208C27.3307 30.8854 26.4281 31.1865 25.7155 31.7668C25.0029 32.3471 24.5297 33.1664 24.3857 34.0695Z" fill="#FBBEBE"/>
<path d="M72.2914 43.0283C68.2154 47.6254 58.1648 55.7268 49.8851 61.3054C48.0955 62.5112 46.3875 63.5972 44.8411 64.5062C43.7966 65.12 42.8252 65.6512 41.9508 66.0846C41.3639 66.3744 40.723 66.541 40.0682 66.5739C39.4134 66.6067 38.7588 66.5052 38.1454 66.2757C37.5319 66.0461 36.973 65.6935 36.5034 65.2398C36.0339 64.7862 35.6639 64.2413 35.4166 63.6394L29.6836 49.8902L31.6672 48.5866L36.5581 45.3707L37.6689 44.6422L42.2553 55.4705L47.0918 51.6221L50.0944 49.2325L63.7821 38.3435L64.9627 37.9961L67.7169 40.6606L69.6648 42.546L71.497 42.8613C71.7709 42.9085 72.0363 42.9642 72.2914 43.0283Z" fill="#ED3779"/>
<path d="M108.862 80.805C109.146 81.1625 109.44 81.5183 109.734 81.8758C108.721 83.9394 107.581 85.9398 106.322 87.8659C106.228 87.8001 106.135 87.7344 106.041 87.6686C106.026 87.6606 106.012 87.6516 105.999 87.6416C105.65 87.3954 105.299 87.1525 104.951 86.9063V86.9046C104.663 85.9341 104.502 84.9309 104.473 83.9197C104.653 83.8788 104.815 83.7841 104.939 83.6484C105.063 83.5126 105.141 83.3425 105.164 83.1609C105.187 82.9794 105.153 82.7953 105.067 82.6336C104.98 82.4719 104.846 82.3404 104.682 82.2569C104.636 82.1777 104.604 82.1203 104.558 82.0394C104.559 82.0192 104.563 81.9972 104.565 81.977C104.832 79.8707 107.54 79.1355 108.862 80.805Z" fill="white"/>
<path d="M111.915 73.5873C112.119 74.1439 112.305 74.7065 112.473 75.2754C112.357 75.6127 112.239 75.9489 112.117 76.2839C112.072 76.1068 112.024 75.9297 111.975 75.7527C111.698 74.7681 111.366 73.7997 110.979 72.8521C110.663 72.0747 110.312 71.3135 109.928 70.5687C107.837 66.5224 104.808 63.0257 101.089 60.366C99.5516 60.0136 98.1605 59.2026 97.1028 58.0422C96.7213 57.6252 96.4022 57.1561 96.1552 56.6492C96.3118 56.6273 96.4683 56.597 96.6214 56.5649C96.669 56.5548 96.7183 56.543 96.766 56.5329L96.7847 56.5295C96.9521 56.491 97.1047 56.4054 97.2241 56.283C97.3436 56.1606 97.4248 56.0066 97.4581 55.8395C97.4913 55.6724 97.4752 55.4993 97.4115 55.3411C97.3479 55.1829 97.2395 55.0463 97.0994 54.9477C97.0127 54.8853 96.9242 54.8246 96.8374 54.7639C96.7047 54.6677 96.5703 54.5767 96.4359 54.4822C96.4218 54.4735 96.4081 54.4639 96.3951 54.4536C96.242 54.3456 96.0889 54.2411 95.9375 54.1315C96.055 53.7557 96.2581 53.4118 96.5312 53.1264C97.4822 52.1533 99.18 52.1753 100.289 52.9679C101.4 53.7605 101.958 55.1484 102.029 56.5008C102.092 57.6594 101.841 58.8061 101.509 59.9242C101.592 59.9849 101.679 60.0423 101.762 60.1047C103.294 61.2299 104.71 62.5013 105.991 63.9007C105.251 62.1604 104.983 59.8905 105.175 58.3272C105.394 56.5464 106.267 54.8549 106.982 53.1702C107.837 51.1466 110.757 51.1196 111.58 53.1567C111.588 53.177 111.597 53.1955 111.604 53.2158C111.466 53.3523 111.333 53.494 111.206 53.6407C111.045 53.8256 110.945 54.0541 110.918 54.2963C110.891 54.5386 110.939 54.7833 111.054 54.9983C111.17 55.2134 111.349 55.3888 111.566 55.5016C111.784 55.6145 112.032 55.6594 112.276 55.6307L112.301 55.6273C112.407 56.2285 112.468 56.8367 112.482 57.4469C112.503 59.154 112.168 60.847 111.498 62.4199C110.828 63.9927 109.838 65.4114 108.589 66.5871C108.508 66.663 108.428 66.7372 108.344 66.8097C109.132 67.9207 109.84 69.0855 110.462 70.2955C111.014 71.3621 111.5 72.4614 111.915 73.5873Z" fill="white"/>
<path d="M79.1369 57.7673L78.6232 92.7447L37.1211 91.5643L43.7489 77.0613C43.7013 76.5959 46.6579 73.3293 46.6409 72.8453C46.5899 71.4271 47.6582 70.1134 47.8317 68.6294C48.1856 65.5686 46.1595 54.01 47.0934 51.6221C47.4913 50.5558 48.001 49.5339 48.6143 48.5731C49.1451 47.7772 49.6894 47.2409 50.21 47.047L51.7445 43.5022L53.1054 41.4785L63.7837 38.3435L64.9644 37.9961L67.7186 40.6606L69.6664 42.546L71.4986 42.8613C71.7725 42.9085 72.0379 42.9642 72.293 43.0283C73.522 43.3092 74.6675 43.8718 75.6376 44.6708C78.8358 47.364 79.2084 52.4299 79.1369 57.7673Z" fill="#ED3779"/>
<path d="M102.971 92.4805C101.801 93.9358 100.561 95.331 99.2508 96.6661L94.7631 96.6695L70.6284 96.6964L66.2836 96.7015L63.395 96.7049L59.0978 96.7083L55.7924 96.7116L49.6868 96.7184L46.0854 96.7234L38.5016 96.7302L34.8814 96.7352L24.8496 96.7453L18.5484 96.7521L16.8574 96.7538C16.4814 96.3727 16.1111 95.9859 15.7465 95.5935C14.8381 94.6171 13.9643 93.6103 13.125 92.5732L16.626 92.5698L19.0111 92.5682L24.5331 92.5614L35.1893 92.5513L38.7908 92.5479L40.247 92.5462H40.2521L41.3953 92.5446L41.9073 92.5429L43.2189 92.5412H43.7735L47.6624 92.5378L56.051 92.5277L59.7425 92.5243L63.2776 92.5209L66.5915 92.5176L71.3463 92.5125L96.7416 92.4872L102.971 92.4805Z" fill="#6F758D"/>
<path d="M45.5532 39.964L45.5439 39.9649C45.0532 40.0102 44.5644 39.8603 44.1851 39.5484C43.8057 39.2364 43.567 38.7878 43.5213 38.3013L42.5539 28.065C42.3788 26.2312 42.5774 24.3812 43.1379 22.6251C44.2367 19.1976 46.6273 16.3226 49.8117 14.5993C51.4559 13.7118 53.2643 13.1636 55.128 12.9875C62.7527 12.2675 65.539 13.8416 70.2489 25.3692C74.9588 36.8969 71.2178 35.6212 71.2178 35.6212C71.2414 35.8678 71.2147 36.1167 71.1391 36.3529C70.9909 36.8138 70.6688 37.2001 70.24 37.4311C70.02 37.5493 69.7782 37.6225 69.5291 37.6464C60.5152 39.9177 51.4198 42.3085 45.5516 39.9642L45.5532 39.964Z" fill="#2F2E41"/>
<path d="M62.3301 22.6841C63.4616 24.3437 64.0716 26.2984 64.0831 28.3015C64.0945 30.3046 63.5069 32.2661 62.3945 33.9383C61.2821 35.6105 59.6947 36.9184 57.8328 37.6969C55.971 38.4753 53.9182 38.6893 51.9337 38.3119C50.62 38.0663 49.3686 37.5648 48.2519 36.8363C47.1352 36.1078 46.1754 35.1669 45.4281 34.0681C44.299 32.409 43.6907 30.4557 43.6798 28.4544C43.669 26.4531 44.2561 24.4935 45.3673 22.8225C46.4784 21.1515 48.0637 19.8441 49.9233 19.065C51.7829 18.286 53.8336 18.0701 55.8168 18.4448C57.1315 18.6889 58.3842 19.1894 59.5023 19.9172C60.6204 20.645 61.5816 21.5856 62.3301 22.6845L62.3301 22.6841Z" fill="#FBBEBE"/>
<path d="M39.3573 29.2015C39.2189 27.7512 39.376 26.2881 39.8194 24.8992C39.9221 21.5016 40.9166 18.4242 45.0969 18.5534C46.3891 17.8565 47.8095 17.4245 49.2736 17.2829L51.3393 17.0807C51.3625 17.0784 51.3858 17.0762 51.409 17.074C52.8402 16.942 54.2836 17.0907 55.6568 17.5116C57.0301 17.9326 58.3062 18.6175 59.4124 19.5274C60.5186 20.4372 61.4332 21.5542 62.104 22.8144C62.7748 24.0746 63.1886 25.4535 63.3217 26.8723L63.3411 27.0773L58.9706 27.5008L57.0896 23.5105L57.1824 27.675L54.9251 27.8946L53.9765 25.8814L54.0228 27.9811C50.6713 30.9072 45.589 31.0606 39.3787 29.4068L39.3573 29.2015Z" fill="#2F2E41"/>
<path d="M53.3378 38.9128C53.3007 39.2501 53.3597 39.5909 53.5082 39.8966C53.5831 40.0531 53.6797 40.1985 53.7952 40.3285C53.8941 40.4392 54.0058 40.5379 54.1281 40.6226C54.4901 40.8725 54.9302 40.9863 55.3693 40.9436C55.3966 40.9408 55.4239 40.9375 55.4512 40.9337C55.4784 40.9299 55.5056 40.9255 55.5327 40.9204C55.5601 40.9155 55.5874 40.9099 55.6144 40.9036C55.6414 40.8972 55.6685 40.8904 55.6957 40.883L57.221 40.4593L58.9306 35.7341L59.3224 39.8804L66.2586 37.9661L64.5957 20.3711L52.7734 21.5259L53.0977 21.8354C54.1749 22.8748 54.9421 24.1887 55.3146 25.6325C55.6843 27.0956 55.7984 28.6107 55.652 30.1119C55.5152 31.63 55.2317 33.1315 54.8053 34.5958C54.4342 35.8924 53.988 37.1668 53.469 38.4125C53.4019 38.5724 53.3578 38.7408 53.3378 38.9128Z" fill="#2F2E41"/>
<path d="M54.9138 94.3907C54.7106 94.3905 54.5099 94.3455 54.3263 94.259L21.5752 95.0873C21.3238 94.9693 21.1145 94.7785 20.9749 94.5401C20.8353 94.3017 20.7719 94.0269 20.7931 93.752C20.8143 93.4772 20.9191 93.2151 21.0936 93.0005C21.2682 92.786 21.5043 92.6289 21.7708 92.5501L43.1975 86.2169C43.4194 86.1513 43.6544 86.1424 43.8807 86.191L77.0242 90.1955C77.3175 90.2584 77.582 90.4146 77.7773 90.6405C77.9726 90.8663 78.088 91.1493 78.1058 91.4462C78.1237 91.7431 78.0431 92.0377 77.8762 92.2849C77.7093 92.5321 77.4655 92.7184 77.1818 92.8154L55.3626 94.3157C55.2183 94.3652 55.0666 94.3905 54.9138 94.3907Z" fill="#886DDE"/>
<path d="M56.1178 92.13C55.9699 92.1301 55.8245 92.0925 55.6954 92.021L29.0967 93.2528C28.9457 93.1689 28.8236 93.0417 28.7465 92.888C28.6694 92.7343 28.6407 92.5612 28.6643 92.3911C28.6878 92.221 28.7625 92.0619 28.8786 91.9345C28.9946 91.8071 29.1467 91.7173 29.315 91.6768L38.9443 89.36C39.0946 89.3239 39.2519 89.3285 39.3998 89.3732L64.1271 89.3437C64.3031 89.3972 64.4573 89.505 64.567 89.6515C64.6768 89.7981 64.7363 89.9756 64.737 90.1581C64.7376 90.3406 64.6793 90.5185 64.5706 90.6658C64.4619 90.8131 64.3085 90.922 64.1329 90.9766L56.3751 92.0911C56.2918 92.1169 56.2051 92.13 56.1178 92.13Z" fill="#2F2E41"/>
<path d="M53.3168 90.7222C53.7772 91.0164 54.297 91.207 54.8398 91.2806C55.3825 91.3541 55.9349 91.3088 56.4581 91.1478C56.9812 90.9868 57.4624 90.714 57.8677 90.3487C58.273 89.9834 58.5926 89.5345 58.8039 89.0335L86.9578 91.2258L85.5968 84.3116L56.558 84.0373C55.6855 83.7412 54.7337 83.7726 53.883 84.1255C53.0323 84.4785 52.3417 85.1286 51.9422 85.9526C51.5426 86.7766 51.4619 87.7173 51.7152 88.5963C51.9686 89.4754 52.5384 90.2318 53.3168 90.7222Z" fill="#FBBEBE"/>
<path d="M69.9457 45.696C69.9457 45.696 74.1986 42.3232 79.3022 48.3942C82.744 52.4884 89.3833 77.239 89.9338 87.4953C89.9686 88.1443 89.8678 88.7934 89.6377 89.402C89.4076 90.0105 89.0532 90.5654 88.5966 91.0319C88.1401 91.4983 87.5913 91.8662 86.9846 92.1126C86.3779 92.3589 85.7265 92.4784 85.071 92.4635L70.0647 92.2046L68.3867 82.8536L80.2344 82.9926L69.9457 45.696Z" fill="#ED3779"/>
<path d="M53.0905 94.3936C52.5756 94.3932 52.0661 94.2909 51.5917 94.0928L21.2354 94.7794C20.4343 94.4482 19.7692 93.8588 19.3478 93.1065C18.9264 92.3543 18.7732 91.4831 18.9131 90.6339L17.7852 64.2062C17.9347 63.2622 18.4359 62.4082 19.1898 61.8127C19.9436 61.2171 20.8953 60.9235 21.857 60.9896L50.0393 62.1484C50.5803 62.1835 51.1077 62.331 51.5875 62.5813C52.0673 62.8315 52.4886 63.1789 52.8242 63.601C53.1598 64.0231 53.4022 64.5103 53.5356 65.0312C53.669 65.5521 53.6904 66.095 53.5986 66.6246L56.9005 91.2069C56.7452 92.0976 56.278 92.9055 55.5811 93.4883C54.8842 94.0712 54.0023 94.3918 53.0905 94.3936Z" fill="#886DDE"/>
<path d="M30.042 15.7112L17.3733 15.6758C17.0337 15.6754 16.7078 15.8085 16.4671 16.0459C16.2263 16.2833 16.0903 16.6056 16.0889 16.9423L16.043 33.5718C16.0423 33.908 16.1762 34.2309 16.4155 34.4693C16.6547 34.7077 16.9796 34.8422 17.3189 34.8433L24.3464 34.8635L29.9893 34.8787C30.3288 34.8793 30.6546 34.7463 30.8952 34.5088C31.1357 34.2713 31.2712 33.9488 31.272 33.6122L31.2754 32.6291L31.3196 16.9844C31.3203 16.6477 31.1861 16.3245 30.9466 16.0857C30.707 15.847 30.3817 15.7123 30.042 15.7112Z" fill="#DCDFED"/>
<path d="M29.1483 16.7061L18.2607 16.6758C17.9428 16.6754 17.6377 16.7999 17.4122 17.0222C17.1868 17.2444 17.0594 17.5462 17.058 17.8613L17.0273 28.553C17.0252 29.9571 17.585 31.3047 18.5838 32.3003C19.5827 33.2958 20.939 33.858 22.3555 33.8635L24.4241 33.8685L29.1006 33.882C29.4187 33.8827 29.724 33.7582 29.9495 33.536C30.175 33.3137 30.3023 33.0117 30.3034 32.6965L30.3068 31.6206L30.3442 17.8984C30.3449 17.5832 30.2193 17.2805 29.9951 17.057C29.7709 16.8334 29.4663 16.7072 29.1483 16.7061Z" fill="white"/>
<path d="M27.9242 24.0117H19.4353C19.3684 24.0117 19.3021 24.0248 19.2403 24.0502C19.1785 24.0755 19.1223 24.1128 19.075 24.1597C19.0277 24.2066 18.9902 24.2622 18.9646 24.3235C18.939 24.3848 18.9258 24.4505 18.9258 24.5168C18.9258 24.5831 18.939 24.6488 18.9646 24.7101C18.9902 24.7714 19.0277 24.827 19.075 24.8739C19.1223 24.9208 19.1785 24.958 19.2403 24.9834C19.3021 25.0088 19.3684 25.0219 19.4353 25.0219H27.9242C28.0593 25.0219 28.1889 24.9687 28.2845 24.8739C28.38 24.7792 28.4337 24.6507 28.4337 24.5168C28.4337 24.3828 28.38 24.2544 28.2845 24.1597C28.1889 24.0649 28.0593 24.0117 27.9242 24.0117Z" fill="#ED3779"/>
<path d="M21.3015 21.2422H19.4353C19.3002 21.2422 19.1706 21.2954 19.075 21.3901C18.9795 21.4848 18.9258 21.6133 18.9258 21.7473C18.9258 21.8812 18.9795 22.0097 19.075 22.1044C19.1706 22.1991 19.3002 22.2523 19.4353 22.2523H21.3015C21.4366 22.2523 21.5662 22.1991 21.6618 22.1044C21.7573 22.0097 21.811 21.8812 21.811 21.7473C21.811 21.6133 21.7573 21.4848 21.6618 21.3901C21.5662 21.2954 21.4366 21.2422 21.3015 21.2422Z" fill="#ED3779"/>
<path d="M27.9242 28.4492H19.4353C19.3002 28.4492 19.1706 28.5024 19.075 28.5972C18.9795 28.6919 18.9258 28.8203 18.9258 28.9543C18.9258 29.0882 18.9795 29.2167 19.075 29.3114C19.1706 29.4062 19.3002 29.4594 19.4353 29.4594H27.9242C28.0593 29.4594 28.1889 29.4062 28.2845 29.3114C28.38 29.2167 28.4337 29.0882 28.4337 28.9543C28.4337 28.8203 28.38 28.6919 28.2845 28.5972C28.1889 28.5024 28.0593 28.4492 27.9242 28.4492Z" fill="#ED3779"/>
<path d="M27.9233 26.2305H19.4344C19.2995 26.2305 19.1702 26.2836 19.0748 26.3782C18.9794 26.4727 18.9258 26.601 18.9258 26.7347C18.9258 26.8684 18.9794 26.9967 19.0748 27.0912C19.1702 27.1858 19.2995 27.2389 19.4344 27.2389H27.9233C28.0582 27.2389 28.1876 27.1858 28.283 27.0912C28.3784 26.9967 28.432 26.8684 28.432 26.7347C28.432 26.601 28.3784 26.4727 28.283 26.3782C28.1876 26.2836 28.0582 26.2305 27.9233 26.2305Z" fill="#ED3779"/>
<path d="M26.2756 23.0261C25.6795 23.0261 25.0968 22.8509 24.6012 22.5226C24.1056 22.1943 23.7193 21.7277 23.4911 21.1818C23.263 20.6359 23.2033 20.0351 23.3196 19.4556C23.4359 18.876 23.723 18.3437 24.1445 17.9259C24.566 17.508 25.103 17.2235 25.6876 17.1082C26.2723 16.9929 26.8783 17.0521 27.429 17.2782C27.9797 17.5043 28.4504 17.8873 28.7816 18.3786C29.1127 18.8699 29.2895 19.4476 29.2895 20.0385C29.2886 20.8306 28.9708 21.59 28.4057 22.1501C27.8407 22.7102 27.0747 23.0252 26.2756 23.0261ZM26.2756 17.2584C25.7209 17.2584 25.1787 17.4215 24.7175 17.7269C24.2564 18.0324 23.8969 18.4666 23.6846 18.9746C23.4724 19.4826 23.4168 20.0415 23.525 20.5808C23.6333 21.1201 23.9003 21.6155 24.2926 22.0043C24.6848 22.3931 25.1845 22.6578 25.7285 22.7651C26.2725 22.8724 26.8364 22.8173 27.3488 22.6069C27.8613 22.3965 28.2992 22.0402 28.6074 21.583C28.9156 21.1258 29.08 20.5883 29.08 20.0385C29.0792 19.3014 28.7835 18.5948 28.2577 18.0736C27.732 17.5524 27.0191 17.2592 26.2756 17.2584Z" fill="#ED3779"/>
<path d="M27.5417 21.1978C27.3336 20.1323 26.9 19.1227 26.2696 18.2354C26.2553 18.2124 26.2354 18.1934 26.2116 18.1803C26.1879 18.1671 26.1611 18.1602 26.1339 18.1602C26.1067 18.1602 26.0799 18.1671 26.0562 18.1803C26.0324 18.1934 26.0125 18.2124 25.9983 18.2354C25.4492 19.1874 25.0983 20.2388 24.9662 21.3276C24.9418 21.5261 25.2562 21.5243 25.2804 21.3276C25.3245 20.9747 25.3933 20.6254 25.4863 20.282C25.4984 20.2796 25.5101 20.2761 25.5214 20.2714C25.9392 20.0634 26.4111 19.9872 26.8738 20.053C26.8778 20.0536 26.8817 20.0528 26.8858 20.0531C27.0386 20.4516 27.1567 20.8622 27.2388 21.2806C27.2771 21.4772 27.58 21.3939 27.5417 21.1978ZM25.5994 19.9001C25.7436 19.4566 25.9272 19.0267 26.148 18.6154C26.3817 18.9693 26.5846 19.3423 26.7546 19.7304C26.3616 19.7011 25.9669 19.759 25.5994 19.9001Z" fill="#ED3779"/>
</g>
<defs>
<clipPath id="clip0_1349_5209">
<rect width="115" height="114" fill="white"/>
</clipPath>
</defs>
</svg>
