<svg width="131" height="117" viewBox="0 0 131 117" fill="none" xmlns="http://www.w3.org/2000/svg">
<g clip-path="url(#clip0_1504_2181)">
<path d="M129.851 44.7432C129.804 44.7432 129.758 44.7289 129.72 44.7022L66.1595 0.661306C65.9661 0.527906 65.7362 0.456614 65.5009 0.457013C65.2655 0.457413 65.0359 0.529483 64.843 0.663539L1.74077 44.7017C1.69086 44.7366 1.62909 44.7503 1.56904 44.7398C1.509 44.7293 1.45559 44.6955 1.42059 44.6458C1.38558 44.5962 1.37183 44.5347 1.38237 44.475C1.39291 44.4152 1.42687 44.3621 1.47678 44.3273L64.579 0.289063C64.8492 0.101412 65.1706 0.000540925 65.5001 2.16944e-06C65.8296 -0.000536586 66.1514 0.0992821 66.4222 0.286048L129.982 44.3268C130.022 44.3546 130.053 44.3945 130.068 44.4406C130.084 44.4867 130.085 44.5366 130.07 44.583C130.055 44.6295 130.026 44.6701 129.987 44.6989C129.947 44.7277 129.9 44.7432 129.851 44.7432Z" fill="#3F3D56"/>
<path d="M5.34375 46.3044L65.5605 1.90234L126.234 49.4638L68.6632 83.4199L37.407 76.3315L5.34375 46.3044Z" fill="#E6E6E6"/>
<path d="M40.0464 104.394H10.2979C10.1152 104.395 9.93428 104.359 9.76545 104.29C9.59663 104.22 9.4432 104.119 9.31396 103.99C9.18471 103.862 9.08218 103.709 9.01222 103.541C8.94226 103.373 8.90625 103.193 8.90625 103.012C8.90625 102.83 8.94226 102.65 9.01222 102.482C9.08218 102.314 9.18471 102.162 9.31396 102.033C9.4432 101.905 9.59663 101.803 9.76545 101.734C9.93428 101.664 10.1152 101.629 10.2979 101.629H40.0464C40.2291 101.629 40.41 101.664 40.5788 101.734C40.7477 101.803 40.9011 101.905 41.0303 102.033C41.1596 102.162 41.2621 102.314 41.3321 102.482C41.4021 102.65 41.4381 102.83 41.4381 103.012C41.4381 103.193 41.4021 103.373 41.3321 103.541C41.2621 103.709 41.1596 103.862 41.0303 103.99C40.9011 104.119 40.7477 104.22 40.5788 104.29C40.41 104.359 40.2291 104.395 40.0464 104.394Z" fill="#ED3A7A"/>
<path d="M20.971 98.4492H10.2979C10.1152 98.4494 9.93428 98.4138 9.76545 98.3444C9.59663 98.2751 9.4432 98.1732 9.31396 98.0448C9.18471 97.9164 9.08218 97.7639 9.01222 97.596C8.94226 97.4281 8.90625 97.2481 8.90625 97.0664C8.90625 96.8846 8.94226 96.7047 9.01222 96.5368C9.08218 96.3689 9.18471 96.2164 9.31396 96.088C9.4432 95.9596 9.59663 95.8577 9.76545 95.7883C9.93428 95.7189 10.1152 95.6834 10.2979 95.6836H20.971C21.1537 95.6834 21.3346 95.7189 21.5034 95.7883C21.6722 95.8577 21.8257 95.9596 21.9549 96.088C22.0842 96.2164 22.1867 96.3689 22.2567 96.5368C22.3266 96.7047 22.3626 96.8846 22.3626 97.0664C22.3626 97.2481 22.3266 97.4281 22.2567 97.596C22.1867 97.7639 22.0842 97.9164 21.9549 98.0448C21.8257 98.1732 21.6722 98.2751 21.5034 98.3444C21.3346 98.4138 21.1537 98.4494 20.971 98.4492Z" fill="#ED3A7A"/>
<path d="M66.4102 71.0349C66.1841 71.0352 65.9601 70.9915 65.7508 70.9064L28.6133 55.575V7.585C28.6138 7.16064 28.7834 6.7538 29.085 6.45373C29.3866 6.15367 29.7955 5.98487 30.2221 5.98438H101.468C101.894 5.98487 102.303 6.15367 102.605 6.45373C102.906 6.7538 103.076 7.16064 103.076 7.585V55.6085L103.007 55.6382L67.0896 70.8989C66.8745 70.9888 66.6435 71.0351 66.4102 71.0349Z" fill="white"/>
<path d="M66.4118 71.1502C66.1707 71.1505 65.9319 71.104 65.7087 71.0133L28.5 55.6524V7.58605C28.5005 7.13137 28.6823 6.69547 29.0054 6.37396C29.3286 6.05246 29.7667 5.87161 30.2237 5.87109H101.469C101.926 5.87161 102.364 6.05246 102.688 6.37396C103.011 6.69547 103.192 7.13137 103.193 7.58605V55.685L67.1363 71.0051C66.907 71.1011 66.6607 71.1504 66.4118 71.1502ZM28.9596 55.3469L65.884 70.5905C66.2284 70.7295 66.6141 70.7272 66.9568 70.5841L102.733 55.3831V7.58605C102.733 7.25263 102.6 6.93297 102.363 6.69721C102.126 6.46144 101.804 6.32881 101.469 6.32842H30.2237C29.8886 6.32881 29.5673 6.46144 29.3303 6.69721C29.0934 6.93297 28.9601 7.25263 28.9597 7.58605L28.9596 55.3469Z" fill="#3F3D56"/>
<path d="M129.391 44.2852H129.345L102.961 55.4941L66.8629 70.8304C66.7218 70.8894 66.5705 70.9202 66.4175 70.921C66.2644 70.9218 66.1128 70.8926 65.9711 70.835L28.7281 55.4621L1.69608 44.3035L1.65478 44.2852H1.60877C1.18224 44.2856 0.77332 44.4544 0.47172 44.7545C0.170119 45.0546 0.000473266 45.4614 0 45.8858V115.399C0.000473873 115.823 0.170119 116.23 0.47172 116.53C0.77332 116.83 1.18224 116.999 1.60877 116.999H129.391C129.818 116.999 130.227 116.83 130.528 116.53C130.83 116.23 131 115.823 131 115.399V45.8858C131 45.4614 130.83 45.0546 130.528 44.7545C130.227 44.4544 129.818 44.2856 129.391 44.2852ZM130.54 115.399C130.54 115.702 130.419 115.993 130.204 116.207C129.988 116.421 129.696 116.542 129.391 116.542H1.60877C1.30404 116.542 1.01183 116.421 0.796355 116.207C0.580879 115.993 0.459771 115.702 0.459649 115.399V45.8858C0.460066 45.5901 0.575334 45.3061 0.781353 45.093C0.987372 44.8799 1.26819 44.7543 1.56512 44.7425L28.7281 55.956L65.7942 71.258C66.1955 71.4204 66.6451 71.418 67.0445 71.2511L102.961 55.9903L129.437 44.7425C129.734 44.7552 130.014 44.8812 130.219 45.0941C130.425 45.307 130.54 45.5906 130.54 45.8858V115.399Z" fill="#3F3D56"/>
<path d="M66.0395 57.4265C64.6685 57.429 63.3338 56.9879 62.2368 56.1697L62.1688 56.1189L47.8482 45.2101C47.185 44.7045 46.6284 44.0739 46.2101 43.3543C45.7918 42.6347 45.5201 41.8401 45.4105 41.016C45.3008 40.1919 45.3554 39.3544 45.5711 38.5513C45.7868 37.7482 46.1593 36.9952 46.6675 36.3354C47.1756 35.6755 47.8094 35.1217 48.5327 34.7056C49.256 34.2894 50.0546 34.0191 50.8829 33.91C51.7112 33.8009 52.5529 33.8552 53.3601 34.0698C54.1673 34.2844 54.9241 34.655 55.5873 35.1606L64.8631 42.2372L86.7833 13.7948C87.2917 13.1351 87.9257 12.5815 88.6491 12.1656C89.3726 11.7497 90.1712 11.4796 90.9996 11.3708C91.8279 11.2621 92.6697 11.3167 93.4768 11.5315C94.2839 11.7464 95.0406 12.1174 95.7036 12.6232L95.5673 12.8073L95.7071 12.6259C97.0445 13.6486 97.9196 15.1574 98.1404 16.8212C98.3611 18.4851 97.9095 20.1681 96.8846 21.501L71.1012 54.9561C70.5049 55.727 69.7381 56.3509 68.8603 56.7793C67.9824 57.2077 67.0172 57.4292 66.0395 57.4265Z" fill="#ED3A7A"/>
</g>
<defs>
<clipPath id="clip0_1504_2181">
<rect width="131" height="117" fill="white"/>
</clipPath>
</defs>
</svg>
