<svg width="132" height="118" viewBox="0 0 132 118" fill="none" xmlns="http://www.w3.org/2000/svg">
<g clip-path="url(#clip0_945_1406)">
<path d="M130.585 44.9709C130.538 44.9709 130.492 44.9565 130.454 44.9297L66.8939 0.664672C66.7005 0.530592 66.4706 0.458938 66.2353 0.459339C65.9999 0.459741 65.7703 0.532178 65.5773 0.666916L2.47515 44.9292C2.42524 44.9642 2.36347 44.978 2.30342 44.9675C2.24337 44.9569 2.18997 44.923 2.15496 44.873C2.11995 44.8231 2.1062 44.7614 2.11674 44.7013C2.12728 44.6413 2.16124 44.5879 2.21115 44.5529L65.3134 0.290534C65.5836 0.101928 65.905 0.000543678 66.2345 2.18048e-06C66.564 -0.000539317 66.8858 0.0997873 67.1566 0.287504L130.717 44.5524C130.757 44.5804 130.787 44.6204 130.803 44.6668C130.819 44.7131 130.819 44.7632 130.804 44.8099C130.79 44.8566 130.761 44.8974 130.721 44.9263C130.682 44.9553 130.634 44.9709 130.585 44.9709Z" fill="#3F3D56"/>
<path d="M6.07812 46.5401L66.2949 1.91211L126.969 49.7156L69.3975 83.8446L38.1414 76.72L6.07812 46.5401Z" fill="#E6E6E6"/>
<path d="M40.7847 104.924H11.0362C10.8535 104.924 10.6726 104.889 10.5037 104.819C10.3349 104.749 10.1815 104.647 10.0522 104.518C9.92299 104.389 9.82046 104.235 9.7505 104.067C9.68054 103.898 9.64453 103.717 9.64453 103.534C9.64453 103.352 9.68054 103.171 9.7505 103.002C9.82046 102.833 9.92299 102.68 10.0522 102.551C10.1815 102.422 10.3349 102.32 10.5037 102.25C10.6726 102.18 10.8535 102.144 11.0362 102.145H40.7847C40.9674 102.144 41.1483 102.18 41.3171 102.25C41.486 102.32 41.6394 102.422 41.7686 102.551C41.8979 102.68 42.0004 102.833 42.0704 103.002C42.1403 103.171 42.1763 103.352 42.1763 103.534C42.1763 103.717 42.1403 103.898 42.0704 104.067C42.0004 104.235 41.8979 104.389 41.7686 104.518C41.6394 104.647 41.486 104.749 41.3171 104.819C41.1483 104.889 40.9674 104.924 40.7847 104.924Z" fill="#4FB2BF"/>
<path d="M21.7093 98.9496H11.0362C10.8535 98.9498 10.6726 98.9141 10.5037 98.8443C10.3349 98.7746 10.1815 98.6722 10.0522 98.5431C9.92299 98.4141 9.82046 98.2608 9.7505 98.092C9.68054 97.9233 9.64453 97.7424 9.64453 97.5598C9.64453 97.3771 9.68054 97.1962 9.7505 97.0275C9.82046 96.8587 9.92299 96.7054 10.0522 96.5764C10.1815 96.4473 10.3349 96.3449 10.5037 96.2752C10.6726 96.2055 10.8535 96.1697 11.0362 96.1699H21.7093C21.8919 96.1697 22.0729 96.2055 22.2417 96.2752C22.4105 96.3449 22.5639 96.4473 22.6932 96.5764C22.8224 96.7054 22.925 96.8587 22.9949 97.0275C23.0649 97.1962 23.1009 97.3771 23.1009 97.5598C23.1009 97.7424 23.0649 97.9233 22.9949 98.092C22.925 98.2608 22.8224 98.4141 22.6932 98.5431C22.5639 98.6722 22.4105 98.7746 22.2417 98.8443C22.0729 98.9141 21.8919 98.9498 21.7093 98.9496Z" fill="#4FB2BF"/>
<path d="M67.1446 71.3972C66.9185 71.3975 66.6945 71.3536 66.4852 71.2681L29.3477 55.8586V7.6244C29.3482 7.19788 29.5178 6.78897 29.8194 6.48737C30.121 6.18578 30.5299 6.01612 30.9564 6.01562H102.202C102.629 6.01612 103.037 6.18578 103.339 6.48737C103.641 6.78897 103.81 7.19788 103.811 7.6244V55.8923L103.741 55.9221L67.824 71.2605C67.6089 71.3509 67.3779 71.3974 67.1446 71.3972Z" fill="white"/>
<path d="M67.1423 71.5117C66.9012 71.512 66.6624 71.4652 66.4391 71.3741L29.2305 55.935V7.62407C29.231 7.16708 29.4128 6.72896 29.7359 6.40582C30.059 6.08268 30.4972 5.90091 30.9542 5.90039H102.2C102.657 5.90091 103.095 6.08268 103.418 6.40582C103.741 6.72896 103.923 7.16708 103.923 7.62407V55.9678L67.8668 71.3658C67.6375 71.4623 67.3911 71.5119 67.1423 71.5117ZM29.6901 55.628L66.6144 70.9492C66.9588 71.0889 67.3445 71.0866 67.6872 70.9428L103.464 55.6644V7.62407C103.463 7.28895 103.33 6.96767 103.093 6.73071C102.856 6.49374 102.535 6.36044 102.2 6.36004H30.9542C30.619 6.36044 30.2978 6.49374 30.0608 6.73071C29.8238 6.96767 29.6905 7.28895 29.6901 7.62407L29.6901 55.628Z" fill="#3F3D56"/>
<path d="M130.126 44.5117H130.08L103.696 55.7777L67.5973 71.1921C67.4562 71.2514 67.3049 71.2823 67.1518 71.2831C66.9988 71.2839 66.8471 71.2545 66.7055 71.1967L29.4624 55.7455L2.43045 44.5301L2.38916 44.5117H2.34315C1.91662 44.5122 1.5077 44.6818 1.20609 44.9834C0.904494 45.285 0.734848 45.694 0.734375 46.1205V115.987C0.734849 116.414 0.904494 116.823 1.20609 117.124C1.5077 117.426 1.91662 117.595 2.34315 117.596H130.126C130.552 117.595 130.961 117.426 131.263 117.124C131.564 116.823 131.734 116.414 131.734 115.987V46.1205C131.734 45.694 131.564 45.285 131.263 44.9834C130.961 44.6818 130.552 44.5122 130.126 44.5117ZM131.275 115.987C131.275 116.292 131.154 116.584 130.938 116.8C130.723 117.015 130.43 117.136 130.126 117.136H2.34315C2.03842 117.136 1.74621 117.015 1.53073 116.8C1.31525 116.584 1.19415 116.292 1.19402 115.987V46.1205C1.19444 45.8233 1.30971 45.5378 1.51573 45.3237C1.72175 45.1095 2.00257 44.9833 2.29949 44.9714L29.4624 56.242L66.5286 71.6218C66.9298 71.7851 67.3794 71.7826 67.7788 71.6149L103.696 56.2764L130.172 44.9714C130.468 44.9842 130.748 45.1108 130.954 45.3248C131.159 45.5388 131.274 45.8238 131.275 46.1205V115.987Z" fill="#3F3D56"/>
<path d="M66.7738 57.7197C65.4028 57.7223 64.0682 57.279 62.9712 56.4566L62.9032 56.4055L48.5826 45.4412C47.9194 44.933 47.3627 44.2992 46.9445 43.5759C46.5262 42.8526 46.2545 42.0541 46.1449 41.2258C46.0352 40.3975 46.0898 39.5557 46.3055 38.7485C46.5212 37.9413 46.8937 37.1845 47.4019 36.5213C47.91 35.8581 48.5438 35.3015 49.2671 34.8832C49.9904 34.4649 50.789 34.1932 51.6173 34.0836C52.4455 33.9739 53.2873 34.0285 54.0945 34.2442C54.9017 34.4598 55.6585 34.8324 56.3217 35.3406L65.5975 42.4531L87.5177 13.866C88.0261 13.2029 88.6601 12.6465 89.3835 12.2285C90.1069 11.8105 90.9056 11.5391 91.734 11.4297C92.5623 11.3204 93.404 11.3753 94.2111 11.5912C95.0183 11.8072 95.7749 12.1801 96.4379 12.6885L96.3017 12.8735L96.4415 12.6912C97.7789 13.7191 98.654 15.2355 98.8748 16.9078C99.0955 18.5801 98.6439 20.2717 97.619 21.6115L71.8356 55.2368C71.2393 56.0116 70.4725 56.6387 69.5946 57.0693C68.7168 57.4999 67.7516 57.7224 66.7738 57.7197Z" fill="#4FB2BF"/>
</g>
<defs>
<clipPath id="clip0_945_1406">
<rect width="131" height="117.595" fill="white" transform="translate(0.734375)"/>
</clipPath>
</defs>
</svg>
