<svg width="18" height="18" viewBox="0 0 18 18" fill="none" xmlns="http://www.w3.org/2000/svg">
<g clip-path="url(#clip0_1514_2024)">
<path fill-rule="evenodd" clip-rule="evenodd" d="M9 18C13.9706 18 18 13.9706 18 9C18 4.02944 13.9706 0 9 0C4.02944 0 0 4.02944 0 9C0 13.9706 4.02944 18 9 18ZM7.07143 12.0536C6.62763 12.0536 6.26786 12.4133 6.26786 12.8571C6.26786 13.301 6.62763 13.6607 7.07143 13.6607H9H10.9286C11.3724 13.6607 11.7321 13.301 11.7321 12.8571C11.7321 12.4133 11.3724 12.0536 10.9286 12.0536H9.80357V8.35714C9.80357 7.91334 9.4438 7.55357 9 7.55357H7.71429C7.27048 7.55357 6.91071 7.91334 6.91071 8.35714C6.91071 8.80095 7.27048 9.16071 7.71429 9.16071H8.19643V12.0536H7.07143ZM10.2857 5.14286C10.2857 5.85293 9.71007 6.42857 9 6.42857C8.28993 6.42857 7.71429 5.85293 7.71429 5.14286C7.71429 4.43278 8.28993 3.85714 9 3.85714C9.71007 3.85714 10.2857 4.43278 10.2857 5.14286Z" fill="#d32f2f"/>
</g>
<defs>
<clipPath id="clip0_1514_2024">
<rect width="18" height="18" fill="#d32f2f"/>
</clipPath>
</defs>
</svg>
