<svg width="16" height="16" viewBox="0 0 16 16" fill="none" xmlns="http://www.w3.org/2000/svg">
<g clip-path="url(#clip0_1854_5662)">
<path fill-rule="evenodd" clip-rule="evenodd" d="M0.979353 1.20243C0.979353 0.571245 1.49103 0.0595703 2.12221 0.0595703C3.93691 0.0595703 5.73385 0.417003 7.41041 1.11146C9.08698 1.80592 10.6104 2.8238 11.8936 4.10699C13.1768 5.39018 14.1946 6.91354 14.8891 8.59011C15.5835 10.2667 15.941 12.0636 15.941 13.8784C15.941 14.5094 15.4292 15.0212 14.7981 15.0212C14.1669 15.0212 13.6553 14.5094 13.6553 13.8784C13.6553 12.3637 13.3569 10.8641 12.7773 9.46482C12.1978 8.06556 11.3482 6.79417 10.2773 5.72323C9.20635 4.65229 7.93496 3.80277 6.53571 3.22318C5.13645 2.6436 3.63675 2.34529 2.12221 2.34529C1.49103 2.34529 0.979353 1.83361 0.979353 1.20243ZM2.40271 11.3548C1.15771 11.3548 0.148438 12.3641 0.148438 13.609C0.148438 14.854 1.15771 15.8633 2.40271 15.8633C3.64771 15.8633 4.65698 14.854 4.65698 13.609C4.65698 12.3641 3.64771 11.3548 2.40271 11.3548ZM2.12221 5.44313C1.49103 5.44313 0.979353 5.95481 0.979353 6.58598C0.979353 7.21717 1.49103 7.72884 2.12221 7.72884C2.92977 7.72884 3.72943 7.8879 4.47551 8.19694C5.2216 8.50598 5.89951 8.95896 6.47055 9.52998C7.04157 10.101 7.49453 10.7789 7.80357 11.525C8.11261 12.271 8.27168 13.0707 8.27168 13.8784C8.27168 14.5094 8.78336 15.0212 9.41453 15.0212C10.0457 15.0212 10.5574 14.5094 10.5574 13.8784C10.5574 12.7706 10.3392 11.6737 9.9153 10.6503C9.49139 9.62691 8.87007 8.69702 8.08679 7.91374C7.30351 7.13046 6.37362 6.50913 5.35021 6.08522C4.32681 5.66131 3.22993 5.44313 2.12221 5.44313Z" fill="black"/>
</g>
<defs>
<clipPath id="clip0_1854_5662">
<rect width="16" height="16" fill="white"/>
</clipPath>
</defs>
</svg>
